STARTFONT 2.1
COMMENT "$XConsortium: us12x23.bdf /main/2 1996/10/29 18:28:09 drk $"
COMMENT "Hand-pixeled glyphs created with modified X Font Editor (Xfed)"
FONT -HP-HP User-Medium-R-Normal-Serif-18-180-72-72-M-120-ISO8859-1
SIZE 18 72 72 
FONTBOUNDINGBOX 12 23 0 -5
STARTPROPERTIES 25
COMMENT "Begin X Logical Font Description (XLFD) Version 1.5"
COPYRIGHT "(c) Copyright 1994, Hewlett Packard Company"
NOTICE "Created by the User Interaction Design Group, July 1994."
NOTICE "Hewlett Packard Company, 3000 Hanover St., Palo Alto, CA 94303, USA"
FONTNAME_REGISTRY ""
FOUNDRY "HP"
FAMILY_NAME "HP User"
WEIGHT_NAME "Medium"
SLANT "R"
ADD_STYLE_NAME "Serif"
SETWIDTH_NAME "Normal"
PIXEL_SIZE 18
POINT_SIZE 180
RESOLUTION_X 72
RESOLUTION_Y 72
SPACING "M"
AVERAGE_WIDTH 120
CHARSET_REGISTRY "ISO8859"
CHARSET_ENCODING "1"
COMMENT "End X Logical Font Description (XLFD)"
CHARSET_COLLECTIONS "ISO8859-1"
FULL_NAME "HP User12x23"
CAP_HEIGHT 14
X_HEIGHT 9
FONT_ASCENT 18
FONT_DESCENT 5
DEFAULT_CHAR 32
COMMENT "End of Font Properties"
ENDPROPERTIES
CHARS 223
STARTCHAR Null
ENCODING 0
SWIDTH 666 0
DWIDTH 12 0
BBX 10 23 1 -5
BITMAP
0000
0000
9000
d000
d000
b000
b000
9000
0000
1200
1200
1200
1200
1200
0C00
0000
0200
0200
0200
0200
0200
03C0
0000
ENDCHAR
STARTCHAR StartOfHeading
ENCODING 1
SWIDTH 666 0
DWIDTH 12 0
BBX 10 23 1 -5
BITMAP
0000
6000
9000
8000
6000
1000
9000
6000
0000
0C00
1200
1200
1200
1200
0C00
0000
0240
0240
03C0
0240
0240
0240
0000
ENDCHAR
STARTCHAR StartOfText
ENCODING 2
SWIDTH 666 0
DWIDTH 12 0
BBX 10 23 1 -5
BITMAP
0000
7000
8800
8000
7000
0800
8800
7000
0000
3E00
0800
0800
0800
0800
0800
0440
0440
0280
0100
0280
0440
0440
0000
ENDCHAR
STARTCHAR EndOfText
ENCODING 3
SWIDTH 666 0
DWIDTH 12 0
BBX 10 23 1 -5
BITMAP
0000
0000
F000
8000
E000
8000
8000
F000
0000
1F00
0400
0400
0400
0400
0400
0000
0440
0280
0100
0280
0440
0440
0000
ENDCHAR
STARTCHAR EndOfTransmit
ENCODING 4
SWIDTH 666 0
DWIDTH 12 0
BBX 11 23 1 -5
BITMAP
0000
0000
F000
8000
E000
8000
8000
F000
0000
1C00
2200
2200
2200
2200
1C00
0000
03E0
0080
0080
0080
0080
0080
0000
ENDCHAR
STARTCHAR Enquiry
ENCODING 5
SWIDTH 666 0
DWIDTH 12 0
BBX 10 23 1 -5
BITMAP
0000
0000
F000
8000
E000
8000
8000
F000
0000
1200
1A00
1A00
1600
1600
1200
0000
0380
0440
0440
0440
0540
0380
00C0
ENDCHAR
STARTCHAR Acknowledge
ENCODING 6
SWIDTH 666 0
DWIDTH 12 0
BBX 10 23 1 -5
BITMAP
0000
0000
6000
9000
9000
F000
9000
9000
0000
0C00
1200
1000
1000
1200
0C00
0000
0240
0280
0300
0280
0240
0240
0000
ENDCHAR
STARTCHAR Bell
ENCODING 7
SWIDTH 666 0
DWIDTH 12 0
BBX 11 23 1 -5
BITMAP
0000
0100
0200
0E00
1100
2080
2080
2080
2080
4040
4040
4040
4040
4040
4040
8020
8020
FFE0
0300
0380
0100
0000
0000
ENDCHAR
STARTCHAR BackSpace
ENCODING 8
SWIDTH 666 0
DWIDTH 12 0
BBX 10 23 1 -5
BITMAP
0000
0000
F000
4800
4800
7000
4800
4800
4800
F000
0000
0380
0440
0400
0380
0040
0040
0440
0380
0000
0000
0000
0000
ENDCHAR
STARTCHAR HorizontalTab
ENCODING 9
SWIDTH 666 0
DWIDTH 12 0
BBX 10 23 1 -5
BITMAP
0000
0000
8800
8800
8800
F800
8800
8800
8800
8800
0000
07C0
0100
0100
0100
0100
0100
0100
0100
0000
0000
0000
0000
ENDCHAR
STARTCHAR LineFeed
ENCODING 10
SWIDTH 666 0
DWIDTH 12 0
BBX 10 23 1 -5
BITMAP
0000
0000
8000
8000
8000
8000
8000
8000
8000
F800
0000
07C0
0400
0400
0780
0400
0400
0400
0400
0000
0000
0000
0000
ENDCHAR
STARTCHAR VerticalTab
ENCODING 11
SWIDTH 666 0
DWIDTH 12 0
BBX 10 23 1 -5
BITMAP
0000
0000
8800
8800
8800
5000
5000
5000
2000
2000
2000
07C0
0100
0100
0100
0100
0100
0100
0100
0000
0000
0000
0000
ENDCHAR
STARTCHAR FormFeed
ENCODING 12
SWIDTH 666 0
DWIDTH 12 0
BBX 10 23 1 -5
BITMAP
0000
0000
F800
8000
8000
F000
8000
8000
8000
8000
0000
07C0
0400
0400
0780
0400
0400
0400
0400
0000
0000
0000
0000
ENDCHAR
STARTCHAR CarriageReturn
ENCODING 13
SWIDTH 666 0
DWIDTH 12 0
BBX 10 23 1 -5
BITMAP
0000
0000
7000
8800
8000
8000
8000
8000
8800
7000
0000
0780
0440
0440
0440
0780
0480
0440
0440
0000
0000
0000
0000
ENDCHAR
STARTCHAR ShiftOut
ENCODING 14
SWIDTH 666 0
DWIDTH 12 0
BBX 10 23 1 -5
BITMAP
0000
7000
8800
8000
8000
7000
0800
0800
8800
7000
0000
0380
0440
0440
0440
0440
0440
0440
0380
0000
0000
0000
0000
ENDCHAR
STARTCHAR ShiftIn
ENCODING 15
SWIDTH 666 0
DWIDTH 12 0
BBX 9 23 1 -5
BITMAP
0000
7000
8800
8000
8000
7000
0800
0800
8800
7000
0000
0380
0100
0100
0100
0100
0100
0100
0380
0000
0000
0000
0000
ENDCHAR
STARTCHAR DataLinkEscape
ENCODING 16
SWIDTH 666 0
DWIDTH 12 0
BBX 10 23 1 -5
BITMAP
0000
0000
f000
4800
4800
4800
4800
f000
0000
1000
1000
1000
1000
1000
1E00
0000
03C0
0200
0380
0200
0200
03C0
0000
ENDCHAR
STARTCHAR DevCtrl1orXon
ENCODING 17
SWIDTH 666 0
DWIDTH 12 0
BBX 10 23 1 -5
BITMAP
0000
0000
f000
4800
4800
4800
4800
f000
0000
0C00
1200
1000
1000
1200
0C00
0000
0080
0180
0080
0080
0080
01C0
0000
ENDCHAR
STARTCHAR DeviceControl2
ENCODING 18
SWIDTH 666 0
DWIDTH 12 0
BBX 10 23 1 -5
BITMAP
0000
0000
f000
4800
4800
4800
4800
f000
0000
0C00
1200
1000
1000
1200
0C00
0000
0180
0240
0040
0080
0100
03C0
0000
ENDCHAR
STARTCHAR DevCtrl3orXoff
ENCODING 19
SWIDTH 666 0
DWIDTH 12 0
BBX 10 23 1 -5
BITMAP
0000
0000
f000
4800
4800
4800
4800
f000
0000
0C00
1200
1000
1000
1200
0C00
0000
0180
0240
0080
0040
0240
0180
0000
ENDCHAR
STARTCHAR DeviceControl4
ENCODING 20
SWIDTH 666 0
DWIDTH 12 0
BBX 10 23 1 -5
BITMAP
0000
0000
f000
4800
4800
4800
4800
f000
0000
0C00
1200
1000
1000
1200
0C00
0000
0080
0180
0280
03C0
0080
0080
0000
ENDCHAR
STARTCHAR NegAcknowledge
ENCODING 21
SWIDTH 666 0
DWIDTH 12 0
BBX 10 23 1 -5
BITMAP
0000
0000
9000
D000
D000
B000
B000
9000
0000
0C00
1200
1200
1E00
1200
1200
0000
0240
0280
0300
0280
0240
0240
0000
ENDCHAR
STARTCHAR SynchronusIdle
ENCODING 22
SWIDTH 666 0
DWIDTH 12 0
BBX 10 23 1 -5
BITMAP
0000
6000
9000
8000
6000
1000
9000
6000
0000
1100
0A00
0400
0400
0400
0400
0000
0240
0340
0340
02C0
02C0
0240
0000
ENDCHAR
STARTCHAR EndTransmit
ENCODING 23
SWIDTH 666 0
DWIDTH 12 0
BBX 10 23 1 -5
BITMAP
0000
0000
F000
8000
E000
8000
8000
F000
0000
3e00
0800
0800
0800
0800
0800
0000
0780
0240
0380
0240
0240
0780
0000
ENDCHAR
STARTCHAR Cancel
ENCODING 24
SWIDTH 666 0
DWIDTH 12 0
BBX 10 23 1 -5
BITMAP
0000
0000
6000
9000
8000
8000
9000
6000
0000
0C00
1200
1200
1E00
1200
1200
0000
0240
0340
0340
02C0
02C0
0240
0000
ENDCHAR
STARTCHAR EndOfMedium
ENCODING 25
SWIDTH 666 0
DWIDTH 12 0
BBX 10 23 1 -5
BITMAP
0000
0000
F800
8000
8000
F000
8000
8000
8000
F800
0000
0440
06C0
06C0
0540
0540
0440
0440
0440
0000
0000
0000
0000
ENDCHAR
STARTCHAR Substitute
ENCODING 26
SWIDTH 666 0
DWIDTH 12 0
BBX 10 23 1 -5
BITMAP
0000
6000
9000
8000
6000
1000
9000
6000
0000
1200
1200
1200
1200
1200
0C00
0000
0780
0240
0380
0240
0240
0780
0000
ENDCHAR
STARTCHAR Escape
ENCODING 27
SWIDTH 666 0
DWIDTH 12 0
BBX 10 23 1 -5
BITMAP
0000
f000
8000
e000
8000
8000
f000
0000
0c00
1200
1000
0C00
0200
1200
0C00
0000
0180
0240
0200
0200
0240
0180
0000
ENDCHAR
STARTCHAR FileSeparator
ENCODING 28
SWIDTH 666 0
DWIDTH 12 0
BBX 10 23 1 -5
BITMAP
0000
0000
F800
8000
8000
F000
8000
8000
8000
8000
0000
0380
0440
0400
0380
0040
0040
0440
0380
0000
0000
0000
0000
ENDCHAR
STARTCHAR GroupSeparator
ENCODING 29
SWIDTH 666 0
DWIDTH 12 0
BBX 10 23 1 -5
BITMAP
0000
0000
7000
8800
8000
8000
9800
8800
8800
7000
0000
0380
0440
0400
0380
0040
0040
0440
0380
0000
0000
0000
0000
ENDCHAR
STARTCHAR RecordSeparatr
ENCODING 30
SWIDTH 666 0
DWIDTH 12 0
BBX 10 23 1 -5
BITMAP
0000
0000
F000
8800
8800
8800
F000
9000
8800
8800
0000
0380
0440
0400
0380
0040
0040
0440
0380
0000
0000
0000
0000
ENDCHAR
STARTCHAR UnitSeparator
ENCODING 31
SWIDTH 666 0
DWIDTH 12 0
BBX 10 23 1 -5
BITMAP
0000
0000
8800
8800
8800
8800
8800
8800
8800
7000
0000
0380
0440
0400
0380
0040
0040
0440
0380
0000
0000
0000
0000
ENDCHAR
STARTCHAR PrintableSpace
ENCODING 32
SWIDTH 666 0
DWIDTH 12 0
BBX 12 23 0 -5
BITMAP
0000
0000
0000
0000
0000
0000
0000
0000
0000
0000
0000
0000
0000
0000
0000
0000
0000
0000
0000
0000
0000
0000
0000
ENDCHAR
STARTCHAR Exclamation
ENCODING 33
SWIDTH 666 0
DWIDTH 12 0
BBX 4 23 4 -5
BITMAP
0000
0000
0000
6000
F000
F000
F000
F000
F000
6000
6000
6000
6000
0000
0000
6000
F000
F000
6000
0000
0000
0000
0000
ENDCHAR
STARTCHAR NeutrlDblQuote
ENCODING 34
SWIDTH 666 0
DWIDTH 12 0
BBX 8 23 2 -5
BITMAP
0000
0000
0000
E700
E700
E700
e700
4200
4200
4200
0000
0000
0000
0000
0000
0000
0000
0000
0000
0000
0000
0000
0000
ENDCHAR
STARTCHAR NumberSign
ENCODING 35
SWIDTH 666 0
DWIDTH 12 0
BBX 10 23 1 -5
BITMAP
0000
0000
0000
3300
3300
3300
3300
FFC0
FFC0
3300
3300
3300
3300
FFC0
FFC0
3300
3300
3300
3300
0000
0000
0000
0000
ENDCHAR
STARTCHAR DollarSign
ENCODING 36
SWIDTH 666 0
DWIDTH 12 0
BBX 10 23 1 -5
BITMAP
0000
0000
0C00
0C00
3F80
61c0
C0c0
C040
E000
7000
3C00
0F00
0380
01C0
80C0
C0C0
E180
7F00
0C00
0C00
0000
0000
0000
ENDCHAR
STARTCHAR PerCentSign
ENCODING 37
SWIDTH 666 0
DWIDTH 12 0
BBX 11 23 1 -5
BITMAP
0000
0000
0000
78C0
CCC0
CD80
CD80
7B00
0300
0600
0600
0C00
0C00
1800
1BC0
3660
3660
6660
63C0
0000
0000
0000
0000
ENDCHAR
STARTCHAR Ampersand
ENCODING 38
SWIDTH 666 0
DWIDTH 12 0
BBX 11 23 1 -5
BITMAP
0000
0000
0000
1c00
3600
6300
6300
6300
3600
3c00
1800
3800
6ce0
c6c0
c680
c380
c380
66c0
3c60
0000
0000
0000
0000
ENDCHAR
STARTCHAR SingleCloseQut
ENCODING 39
SWIDTH 666 0
DWIDTH 12 0
BBX 5 23 3 -5
BITMAP
0000
0000
3000
7800
7800
3800
3000
6000
c000
0000
0000
0000
0000
0000
0000
0000
0000
0000
0000
0000
0000
0000
0000
ENDCHAR
STARTCHAR OpenParen
ENCODING 40
SWIDTH 666 0
DWIDTH 12 0
BBX 6 23 4 -5
BITMAP
0000
0000
0c00
1800
3000
6000
6000
c000
C000
C000
C000
C000
C000
C000
c000
6000
6000
3000
1800
0c00
0000
0000
0000
ENDCHAR
STARTCHAR CloseParen
ENCODING 41
SWIDTH 666 0
DWIDTH 12 0
BBX 6 23 3 -5
BITMAP
0000
0000
c000
6000
3000
1800
1800
0C00
0C00
0C00
0C00
0C00
0C00
0C00
0C00
1800
1800
3000
6000
c000
0000
0000
0000
ENDCHAR
STARTCHAR Asterisk
ENCODING 42
SWIDTH 666 0
DWIDTH 12 0
BBX 10 23 1 -5
BITMAP
0000
0000
0000
0000
0000
0000
0c00
4c80
edc0
7f80
3f00
1e00
7f80
edc0
4c80
0c00
0000
0000
0000
0000
0000
0000
0000
ENDCHAR
STARTCHAR PlusSign
ENCODING 43
SWIDTH 666 0
DWIDTH 12 0
BBX 10 23 1 -5
BITMAP
0000
0000
0000
0000
0000
0000
0C00
0C00
0C00
0C00
FFC0
FFC0
0C00
0C00
0C00
0C00
0000
0000
0000
0000
0000
0000
0000
ENDCHAR
STARTCHAR Comma
ENCODING 44
SWIDTH 666 0
DWIDTH 12 0
BBX 5 23 3 -5
BITMAP
0000
0000
0000
0000
0000
0000
0000
0000
0000
0000
0000
0000
0000
0000
3000
7800
7800
3800
3000
6000
C000
0000
0000
ENDCHAR
STARTCHAR Hyphen
ENCODING 45
SWIDTH 666 0
DWIDTH 12 0
BBX 10 23 1 -5
BITMAP
0000
0000
0000
0000
0000
0000
0000
0000
0000
0000
FFC0
FFC0
0000
0000
0000
0000
0000
0000
0000
0000
0000
0000
0000
ENDCHAR
STARTCHAR Period
ENCODING 46
SWIDTH 666 0
DWIDTH 12 0
BBX 4 23 4 -5
BITMAP
0000
0000
0000
0000
0000
0000
0000
0000
0000
0000
0000
0000
0000
0000
6000
F000
F000
6000
0000
0000
0000
0000
0000
ENDCHAR
STARTCHAR Slash
ENCODING 47
SWIDTH 666 0
DWIDTH 12 0
BBX 10 23 1 -5
BITMAP
0000
0000
00C0
00C0
0180
0180
0300
0300
0600
0600
0C00
0C00
1800
1800
3000
3000
6000
6000
C000
C000
0000
0000
0000
ENDCHAR
STARTCHAR Zero
ENCODING 48
SWIDTH 666 0
DWIDTH 12 0
BBX 10 23 1 -5
BITMAP
0000
0000
0000
0000
1E00
7380
6180
C0C0
C0C0
C0C0
CCC0
CCC0
C0C0
C0C0
C0C0
6180
7380
1E00
0000
0000
0000
0000
0000
ENDCHAR
STARTCHAR One
ENCODING 49
SWIDTH 666 0
DWIDTH 12 0
BBX 5 23 3 -5
BITMAP
0000
0000
0000
0000
1800
3800
7800
d800
1800
1800
1800
1800
1800
1800
1800
1800
1800
1800
0000
0000
0000
0000
0000
ENDCHAR
STARTCHAR Two
ENCODING 50
SWIDTH 666 0
DWIDTH 12 0
BBX 9 23 2 -5
BITMAP
0000
0000
0000
0000
3E00
6300
C180
C180
0180
0300
0600
0C00
1800
3000
6000
C080
C180
FF80
0000
0000
0000
0000
0000
ENDCHAR
STARTCHAR Three
ENCODING 51
SWIDTH 666 0
DWIDTH 12 0
BBX 9 23 2 -5
BITMAP
0000
0000
0000
0000
3E00
6300
C180
C180
0180
0300
1E00
0300
0180
0180
0180
c180
c300
7E00
0000
0000
0000
0000
0000
ENDCHAR
STARTCHAR Four
ENCODING 52
SWIDTH 666 0
DWIDTH 12 0
BBX 10 23 2 -5
BITMAP
0000
0000
0000
0000
0C00
0C00
1800
1800
3000
3100
6300
6300
C300
C300
FFC0
0300
0300
0300
0000
0000
0000
0000
0000
ENDCHAR
STARTCHAR Five
ENCODING 53
SWIDTH 666 0
DWIDTH 12 0
BBX 9 23 2 -5
BITMAP
0000
0000
0000
0000
7F00
6000
6000
6000
6000
7E00
0300
0180
0180
0180
0180
0180
c300
7E00
0000
0000
0000
0000
0000
ENDCHAR
STARTCHAR Six
ENCODING 54
SWIDTH 666 0
DWIDTH 12 0
BBX 9 23 2 -5
BITMAP
0000
0000
0000
0000
0700
1C00
3000
6000
6000
C000
DE00
E300
C180
C180
C180
C180
6300
3E00
0000
0000
0000
0000
0000
ENDCHAR
STARTCHAR Seven
ENCODING 55
SWIDTH 666 0
DWIDTH 12 0
BBX 9 23 2 -5
BITMAP
0000
0000
0000
0000
FF80
ff80
8300
0300
0600
0600
0600
0c00
0c00
0c00
1800
1800
1800
1800
0000
0000
0000
0000
0000
ENDCHAR
STARTCHAR Eight
ENCODING 56
SWIDTH 666 0
DWIDTH 12 0
BBX 9 23 2 -5
BITMAP
0000
0000
0000
0000
3E00
6300
C180
C180
C180
6300
3E00
6300
C180
C180
C180
C180
6300
3E00
0000
0000
0000
0000
0000
ENDCHAR
STARTCHAR Nine
ENCODING 57
SWIDTH 666 0
DWIDTH 12 0
BBX 9 23 2 -5
BITMAP
0000
0000
0000
0000
3E00
6300
C180
C180
C180
C180
6380
3D80
0180
0300
0300
0600
1C00
7000
0000
0000
0000
0000
0000
ENDCHAR
STARTCHAR Colon
ENCODING 58
SWIDTH 666 0
DWIDTH 12 0
BBX 4 23 4 -5
BITMAP
0000
0000
0000
0000
0000
0000
0000
0000
0000
6000
F000
f000
6000
0000
6000
F000
F000
6000
0000
0000
0000
0000
0000
ENDCHAR
STARTCHAR Simicolon
ENCODING 59
SWIDTH 666 0
DWIDTH 12 0
BBX 5 23 3 -5
BITMAP
0000
0000
0000
0000
0000
0000
0000
0000
0000
3000
7800
7800
3000
0000
3000
7800
7800
3800
3000
6000
C000
0000
0000
ENDCHAR
STARTCHAR LessThanSign
ENCODING 60
SWIDTH 666 0
DWIDTH 12 0
BBX 10 23 1 -5
BITMAP
0000
0000
0000
0000
0000
0000
00C0
03c0
0f00
3c00
f000
f000
3c00
0f00
03c0
00C0
0000
0000
0000
0000
0000
0000
0000
ENDCHAR
STARTCHAR EqualsSign
ENCODING 61
SWIDTH 666 0
DWIDTH 12 0
BBX 10 23 1 -5
BITMAP
0000
0000
0000
0000
0000
0000
0000
0000
FFC0
FFC0
0000
0000
FFC0
FFC0
0000
0000
0000
0000
0000
0000
0000
0000
0000
ENDCHAR
STARTCHAR GreatrThanSign
ENCODING 62
SWIDTH 666 0
DWIDTH 12 0
BBX 10 23 1 -5
BITMAP
0000
0000
0000
0000
0000
0000
c000
f000
3c00
0f00
03C0
03C0
0f00
3c00
f000
c000
0000
0000
0000
0000
0000
0000
0000
ENDCHAR
STARTCHAR QuestionMark
ENCODING 63
SWIDTH 666 0
DWIDTH 12 0
BBX 9 23 2 -5
BITMAP
0000
0000
0000
3e00
6700
e380
e380
4380
0700
0e00
1c00
1800
1800
0000
0000
1800
3c00
3c00
1800
0000
0000
0000
0000
ENDCHAR
STARTCHAR CommerclAtSign
ENCODING 64
SWIDTH 666 0
DWIDTH 12 0
BBX 11 23 1 -5
BITMAP
0000
0000
0000
1F00
71c0
60C0
C060
C060
Cd60
db60
db60
db60
db60
db60
Cdc0
C000
6000
70c0
1F80
0000
0000
0000
0000
ENDCHAR
STARTCHAR A
ENCODING 65
SWIDTH 666 0
DWIDTH 12 0
BBX 12 23 0 -5
BITMAP
0000
0000
0000
0000
0600
0600
0f00
0b00
0b00
1980
1180
1180
30c0
3fc0
20c0
6060
6060
f0f0
0000
0000
0000
0000
0000
ENDCHAR
STARTCHAR B
ENCODING 66
SWIDTH 666 0
DWIDTH 12 0
BBX 10 23 1 -5
BITMAP
0000
0000
0000
0000
FE00
6300
6180
6180
6180
6300
7F00
6180
60C0
60C0
60C0
60C0
6180
FF00
0000
0000
0000
0000
0000
ENDCHAR
STARTCHAR C
ENCODING 67
SWIDTH 666 0
DWIDTH 12 0
BBX 10 23 1 -5
BITMAP
0000
0000
0000
0000
1f40
31C0
60C0
6040
C000
C000
C000
C000
C000
C000
6000
6040
39c0
0F00
0000
0000
0000
0000
0000
ENDCHAR
STARTCHAR D
ENCODING 68
SWIDTH 666 0
DWIDTH 12 0
BBX 11 23 1 -5
BITMAP
0000
0000
0000
0000
FE00
6380
60C0
60C0
6060
6060
6060
6060
6060
6060
60C0
60C0
6380
FE00
0000
0000
0000
0000
0000
ENDCHAR
STARTCHAR E
ENCODING 69
SWIDTH 666 0
DWIDTH 12 0
BBX 10 23 1 -5
BITMAP
0000
0000
0000
0000
FFC0
60C0
6040
6040
6200
6200
7E00
6200
6200
6000
6040
6040
60C0
FFC0
0000
0000
0000
0000
0000
ENDCHAR
STARTCHAR F
ENCODING 70
SWIDTH 666 0
DWIDTH 12 0
BBX 10 23 1 -5
BITMAP
0000
0000
0000
0000
FFC0
60C0
6040
6040
6200
6200
7E00
6200
6200
6000
6000
6000
6000
F800
0000
0000
0000
0000
0000
ENDCHAR
STARTCHAR G
ENCODING 71
SWIDTH 666 0
DWIDTH 12 0
BBX 11 23 1 -5
BITMAP
0000
0000
0000
0000
1F40
31C0
60C0
6040
C000
C000
C000
C3E0
C0C0
C0C0
60C0
60C0
39C0
0F00
0000
0000
0000
0000
0000
ENDCHAR
STARTCHAR H
ENCODING 72
SWIDTH 666 0
DWIDTH 12 0
BBX 11 23 1 -5
BITMAP
0000
0000
0000
0000
F1E0
60C0
60C0
60C0
60C0
60C0
7FC0
60C0
60C0
60C0
60C0
60C0
60C0
F1E0
0000
0000
0000
0000
0000
ENDCHAR
STARTCHAR I
ENCODING 73
SWIDTH 666 0
DWIDTH 12 0
BBX 8 23 2 -5
BITMAP
0000
0000
0000
0000
fF00
1800
1800
1800
1800
1800
1800
1800
1800
1800
1800
1800
1800
ff00
0000
0000
0000
0000
0000
ENDCHAR
STARTCHAR J
ENCODING 74
SWIDTH 666 0
DWIDTH 12 0
BBX 10 23 1 -5
BITMAP
0000
0000
0000
0000
1fc0
0300
0300
0300
0300
0300
0300
0300
0300
0300
c300
c300
6600
3c00
0000
0000
0000
0000
0000
ENDCHAR
STARTCHAR K
ENCODING 75
SWIDTH 666 0
DWIDTH 12 0
BBX 12 23 0 -5
BITMAP
0000
0000
0000
0000
F1E0
60C0
6180
6300
6600
6c00
7c00
7c00
6e00
6700
6380
61c0
60e0
F1f0
0000
0000
0000
0000
0000
ENDCHAR
STARTCHAR L
ENCODING 76
SWIDTH 666 0
DWIDTH 12 0
BBX 10 23 1 -5
BITMAP
0000
0000
0000
0000
F000
6000
6000
6000
6000
6000
6000
6000
6000
6000
6040
6040
60C0
FFC0
0000
0000
0000
0000
0000
ENDCHAR
STARTCHAR M
ENCODING 77
SWIDTH 666 0
DWIDTH 12 0
BBX 11 23 1 -5
BITMAP
0000
0000
0000
0000
e0e0
60c0
71c0
71c0
7bc0
5ac0
5ec0
4cc0
4cc0
40c0
40c0
40c0
40c0
e1e0
0000
0000
0000
0000
0000
ENDCHAR
STARTCHAR N
ENCODING 78
SWIDTH 666 0
DWIDTH 12 0
BBX 10 23 1 -5
BITMAP
0000
0000
0000
0000
e1c0
7080
7080
7880
5880
5c80
4c80
4e80
4680
4780
4380
4380
4180
e180
0000
0000
0000
0000
0000
ENDCHAR
STARTCHAR O
ENCODING 79
SWIDTH 666 0
DWIDTH 12 0
BBX 11 23 1 -5
BITMAP
0000
0000
0000
0000
0e00
3b80
60c0
60c0
c060
c060
c060
c060
c060
c060
60c0
60c0
3b80
0e00
0000
0000
0000
0000
0000
ENDCHAR
STARTCHAR P
ENCODING 80
SWIDTH 666 0
DWIDTH 12 0
BBX 10 23 1 -5
BITMAP
0000
0000
0000
0000
FF00
6180
60C0
60C0
60C0
60C0
6180
7F00
6000
6000
6000
6000
6000
F800
0000
0000
0000
0000
0000
ENDCHAR
STARTCHAR Q
ENCODING 81
SWIDTH 666 0
DWIDTH 12 0
BBX 11 23 1 -5
BITMAP
0000
0000
0000
0000
0e00
3b80
60C0
60C0
C060
C060
C060
C060
C060
C060
60C0
66C0
3780
1F00
0300
0180
00c0
0000
0000
ENDCHAR
STARTCHAR R
ENCODING 82
SWIDTH 666 0
DWIDTH 12 0
BBX 11 23 1 -5
BITMAP
0000
0000
0000
0000
FF00
6180
60C0
60C0
60C0
6180
7f00
6600
6300
6300
6180
6180
60C0
F0E0
0000
0000
0000
0000
0000
ENDCHAR
STARTCHAR S
ENCODING 83
SWIDTH 666 0
DWIDTH 12 0
BBX 10 23 1 -5
BITMAP
0000
0000
0000
0000
3e80
6380
c180
c080
e000
7000
3c00
0f00
0380
01c0
80c0
c0c0
e180
bf00
0000
0000
0000
0000
0000
ENDCHAR
STARTCHAR T
ENCODING 84
SWIDTH 666 0
DWIDTH 12 0
BBX 10 23 1 -5
BITMAP
0000
0000
0000
0000
FFC0
CCC0
8C40
8C40
0C00
0C00
0C00
0C00
0C00
0C00
0C00
0C00
0C00
3F00
0000
0000
0000
0000
0000
ENDCHAR
STARTCHAR U
ENCODING 85
SWIDTH 666 0
DWIDTH 12 0
BBX 11 23 1 -5
BITMAP
0000
0000
0000
0000
F1E0
60c0
60c0
60c0
60c0
60c0
60c0
60c0
60c0
60c0
60c0
60c0
3180
1F00
0000
0000
0000
0000
0000
ENDCHAR
STARTCHAR V
ENCODING 86
SWIDTH 666 0
DWIDTH 12 0
BBX 12 23 0 -5
BITMAP
0000
0000
0000
0000
F0f0
6060
6040
3040
30c0
3080
1880
1980
1900
0d00
0F00
0600
0600
0600
0000
0000
0000
0000
0000
ENDCHAR
STARTCHAR W
ENCODING 87
SWIDTH 666 0
DWIDTH 12 0
BBX 12 23 0 -5
BITMAP
0000
0000
0000
0000
e070
4020
4020
6660
6660
6660
2f40
2b40
3bc0
39c0
39c0
1980
1080
1080
0000
0000
0000
0000
0000
ENDCHAR
STARTCHAR X
ENCODING 88
SWIDTH 666 0
DWIDTH 12 0
BBX 11 23 1 -5
BITMAP
0000
0000
0000
0000
F1E0
60C0
3180
3180
1B00
1b00
0E00
0E00
1b00
1B00
3180
3180
60C0
F1E0
0000
0000
0000
0000
0000
ENDCHAR
STARTCHAR Y
ENCODING 89
SWIDTH 666 0
DWIDTH 12 0
BBX 12 23 0 -5
BITMAP
0000
0000
0000
0000
F0F0
6060
30C0
30C0
1980
1980
0F00
0F00
0600
0600
0600
0600
0600
1F80
0000
0000
0000
0000
0000
ENDCHAR
STARTCHAR Z
ENCODING 90
SWIDTH 666 0
DWIDTH 12 0
BBX 10 23 1 -5
BITMAP
0000
0000
0000
0000
FFC0
C0C0
80c0
8180
0300
0600
0C00
1800
3000
6000
c040
c040
C0C0
FFC0
0000
0000
0000
0000
0000
ENDCHAR
STARTCHAR OpenBracket
ENCODING 91
SWIDTH 666 0
DWIDTH 12 0
BBX 5 23 5 -5
BITMAP
0000
0000
F800
C000
C000
C000
C000
C000
C000
C000
C000
C000
C000
C000
C000
C000
C000
C000
C000
F800
0000
0000
0000
ENDCHAR
STARTCHAR BackSlash
ENCODING 92
SWIDTH 666 0
DWIDTH 12 0
BBX 10 23 1 -5
BITMAP
0000
0000
C000
C000
6000
6000
3000
3000
1800
1800
0C00
0C00
0600
0600
0300
0300
0180
0180
00C0
00C0
0000
0000
0000
ENDCHAR
STARTCHAR CloseBracket
ENCODING 93
SWIDTH 666 0
DWIDTH 12 0
BBX 5 23 3 -5
BITMAP
0000
0000
F800
1800
1800
1800
1800
1800
1800
1800
1800
1800
1800
1800
1800
1800
1800
1800
1800
F800
0000
0000
0000
ENDCHAR
STARTCHAR Circumflex
ENCODING 94
SWIDTH 666 0
DWIDTH 12 0
BBX 8 23 2 -5
BITMAP
0000
0000
0000
0000
1800
3C00
6600
8100
0000
0000
0000
0000
0000
0000
0000
0000
0000
0000
0000
0000
0000
0000
0000
ENDCHAR
STARTCHAR Underscore
ENCODING 95
SWIDTH 666 0
DWIDTH 12 0
BBX 12 23 0 -5
BITMAP
0000
0000
0000
0000
0000
0000
0000
0000
0000
0000
0000
0000
0000
0000
0000
0000
0000
0000
FFF0
0000
0000
0000
0000
ENDCHAR
STARTCHAR SingleOpenQuot
ENCODING 96
SWIDTH 666 0
DWIDTH 12 0
BBX 5 23 4 -5
BITMAP
0000
0000
1800
3000
6000
e000
f000
F000
6000
0000
0000
0000
0000
0000
0000
0000
0000
0000
0000
0000
0000
0000
0000
ENDCHAR
STARTCHAR a
ENCODING 97
SWIDTH 666 0
DWIDTH 12 0
BBX 10 23 1 -5
BITMAP
0000
0000
0000
0000
0000
0000
0000
0000
0000
3f00
6380
0180
0180
3f80
6180
c180
e780
7cc0
0000
0000
0000
0000
0000
ENDCHAR
STARTCHAR b
ENCODING 98
SWIDTH 666 0
DWIDTH 12 0
BBX 11 23 1 -5
BITMAP
0000
0000
0000
0000
6000
E000
6000
6000
6000
6f00
71C0
60C0
6060
6060
6060
60C0
71C0
6F00
0000
0000
0000
0000
0000
ENDCHAR
STARTCHAR c
ENCODING 99
SWIDTH 666 0
DWIDTH 12 0
BBX 9 23 2 -5
BITMAP
0000
0000
0000
0000
0000
0000
0000
0000
0000
1F80
7180
6080
C000
C000
C000
6080
7380
1E00
0000
0000
0000
0000
0000
ENDCHAR
STARTCHAR d
ENCODING 100
SWIDTH 666 0
DWIDTH 12 0
BBX 11 23 1 -5
BITMAP
0000
0000
0000
0000
00C0
01C0
00C0
00C0
00C0
1EC0
71C0
60C0
C0C0
C0C0
C0C0
60C0
71c0
1E60
0000
0000
0000
0000
0000
ENDCHAR
STARTCHAR e
ENCODING 101
SWIDTH 666 0
DWIDTH 12 0
BBX 10 23 1 -5
BITMAP
0000
0000
0000
0000
0000
0000
0000
0000
0000
1E00
7380
6180
C0C0
FFC0
C000
6040
71C0
1F00
0000
0000
0000
0000
0000
ENDCHAR
STARTCHAR f
ENCODING 102
SWIDTH 666 0
DWIDTH 12 0
BBX 10 23 1 -5
BITMAP
0000
0000
0000
0000
0f80
18C0
1800
1800
1800
FF80
1800
1800
1800
1800
1800
1800
1800
FF80
0000
0000
0000
0000
0000
ENDCHAR
STARTCHAR g
ENCODING 103
SWIDTH 666 0
DWIDTH 12 0
BBX 11 23 1 -5
BITMAP
0000
0000
0000
0000
0000
0000
0000
0000
0000
3ee0
6380
C180
C180
6300
3E00
6000
3F80
60C0
C0C0
C0C0
6180
3F00
0000
ENDCHAR
STARTCHAR h
ENCODING 104
SWIDTH 666 0
DWIDTH 12 0
BBX 10 23 1 -5
BITMAP
0000
0000
0000
0000
6000
E000
6000
6000
6000
6F00
7380
6180
6180
6180
6180
6180
6180
F3C0
0000
0000
0000
0000
0000
ENDCHAR
STARTCHAR i
ENCODING 105
SWIDTH 666 0
DWIDTH 12 0
BBX 8 23 3 -5
BITMAP
0000
0000
0000
0000
1800
3C00
1800
0000
0000
1800
F800
1800
1800
1800
1800
1800
1800
FF00
0000
0000
0000
0000
0000
ENDCHAR
STARTCHAR j
ENCODING 106
SWIDTH 666 0
DWIDTH 12 0
BBX 9 23 0 -5
BITMAP
0000
0000
0000
0000
0300
0780
0300
0000
0000
0300
1f00
0300
0300
0300
0300
0300
0300
0300
0300
c300
e600
3c00
0000
ENDCHAR
STARTCHAR k
ENCODING 107
SWIDTH 666 0
DWIDTH 12 0
BBX 11 23 1 -5
BITMAP
0000
0000
0000
0000
6000
E000
6000
6000
6000
67C0
6300
6600
6C00
7C00
6600
6300
6180
F1e0
0000
0000
0000
0000
0000
ENDCHAR
STARTCHAR l
ENCODING 108
SWIDTH 666 0
DWIDTH 12 0
BBX 8 23 2 -5
BITMAP
0000
0000
0000
0000
7800
1800
1800
1800
1800
1800
1800
1800
1800
1800
1800
1800
1800
ff00
0000
0000
0000
0000
0000
ENDCHAR
STARTCHAR m
ENCODING 109
SWIDTH 666 0
DWIDTH 12 0
BBX 12 23 0 -5
BITMAP
0000
0000
0000
0000
0000
0000
0000
0000
0000
5dc0
f760
6660
6660
6660
6660
6660
6660
eef0
0000
0000
0000
0000
0000
ENDCHAR
STARTCHAR n
ENCODING 110
SWIDTH 666 0
DWIDTH 12 0
BBX 10 23 1 -5
BITMAP
0000
0000
0000
0000
0000
0000
0000
0000
0000
6F00
F380
6180
6180
6180
6180
6180
6180
F3C0
0000
0000
0000
0000
0000
ENDCHAR
STARTCHAR o
ENCODING 111
SWIDTH 666 0
DWIDTH 12 0
BBX 10 23 1 -5
BITMAP
0000
0000
0000
0000
0000
0000
0000
0000
0000
1E00
7380
6180
C0C0
C0C0
C0C0
6180
7380
1E00
0000
0000
0000
0000
0000
ENDCHAR
STARTCHAR p
ENCODING 112
SWIDTH 666 0
DWIDTH 12 0
BBX 11 23 1 -5
BITMAP
0000
0000
0000
0000
0000
0000
0000
0000
0000
6F00
f1C0
60C0
6060
6060
6060
60C0
71C0
6F00
6000
6000
6000
F800
0000
ENDCHAR
STARTCHAR q
ENCODING 113
SWIDTH 666 0
DWIDTH 12 0
BBX 11 23 1 -5
BITMAP
0000
0000
0000
0000
0000
0000
0000
0000
0000
1E40
71C0
60C0
C0C0
C0C0
C0C0
60C0
71C0
1EC0
00C0
00C0
00C0
03E0
0000
ENDCHAR
STARTCHAR r
ENCODING 114
SWIDTH 666 0
DWIDTH 12 0
BBX 10 23 1 -5
BITMAP
0000
0000
0000
0000
0000
0000
0000
0000
0000
3380
F5C0
3880
3000
3000
3000
3000
3000
FE00
0000
0000
0000
0000
0000
ENDCHAR
STARTCHAR s
ENCODING 115
SWIDTH 666 0
DWIDTH 12 0
BBX 8 23 2 -5
BITMAP
0000
0000
0000
0000
0000
0000
0000
0000
0000
7f00
e300
c100
f000
7e00
0f00
8300
c700
fe00
0000
0000
0000
0000
0000
ENDCHAR
STARTCHAR t
ENCODING 116
SWIDTH 666 0
DWIDTH 12 0
BBX 10 23 1 -5
BITMAP
0000
0000
0000
0000
0000
0000
1800
1800
1800
FF80
1800
1800
1800
1800
1800
1800
1840
0F80
0000
0000
0000
0000
0000
ENDCHAR
STARTCHAR u
ENCODING 117
SWIDTH 666 0
DWIDTH 12 0
BBX 10 23 1 -5
BITMAP
0000
0000
0000
0000
0000
0000
0000
0000
0000
6180
E380
6180
6180
6180
6180
6180
7380
3cc0
0000
0000
0000
0000
0000
ENDCHAR
STARTCHAR v
ENCODING 118
SWIDTH 666 0
DWIDTH 12 0
BBX 11 23 1 -5
BITMAP
0000
0000
0000
0000
0000
0000
0000
0000
0000
F1E0
60C0
3080
3180
1900
1B00
0E00
0E00
0400
0000
0000
0000
0000
0000
ENDCHAR
STARTCHAR w
ENCODING 119
SWIDTH 666 0
DWIDTH 12 0
BBX 11 23 1 -5
BITMAP
0000
0000
0000
0000
0000
0000
0000
0000
0000
F1e0
60c0
64c0
64C0
6EC0
2A80
3B80
3180
3180
0000
0000
0000
0000
0000
ENDCHAR
STARTCHAR x
ENCODING 120
SWIDTH 666 0
DWIDTH 12 0
BBX 11 23 1 -5
BITMAP
0000
0000
0000
0000
0000
0000
0000
0000
0000
F3C0
6180
3300
1E00
0C00
1E00
3300
6180
F3C0
0000
0000
0000
0000
0000
ENDCHAR
STARTCHAR y
ENCODING 121
SWIDTH 666 0
DWIDTH 12 0
BBX 11 23 1 -5
BITMAP
0000
0000
0000
0000
0000
0000
0000
0000
0000
F1E0
60C0
3080
3180
1900
1b00
0e00
0e00
0400
0c00
2800
7800
3000
0000
ENDCHAR
STARTCHAR z
ENCODING 122
SWIDTH 666 0
DWIDTH 12 0
BBX 8 23 2 -5
BITMAP
0000
0000
0000
0000
0000
0000
0000
0000
0000
FF00
C300
8600
0C00
1800
3000
6100
C300
FF00
0000
0000
0000
0000
0000
ENDCHAR
STARTCHAR OpenBrace
ENCODING 123
SWIDTH 666 0
DWIDTH 12 0
BBX 7 23 3 -5
BITMAP
0000
0000
0e00
1800
1800
1800
1800
1800
1800
3000
E000
3000
1800
1800
1800
1800
1800
1800
1800
0e00
0000
0000
0000
ENDCHAR
STARTCHAR LongVertMark
ENCODING 124
SWIDTH 666 0
DWIDTH 12 0
BBX 2 23 5 -5
BITMAP
0000
0000
0000
C000
C000
C000
C000
C000
C000
C000
C000
C000
C000
C000
C000
C000
C000
C000
C000
0000
0000
0000
0000
ENDCHAR
STARTCHAR CloseBrace
ENCODING 125
SWIDTH 666 0
DWIDTH 12 0
BBX 7 23 3 -5
BITMAP
0000
0000
E000
3000
3000
3000
3000
3000
3000
1800
0E00
1800
3000
3000
3000
3000
3000
3000
3000
E000
0000
0000
0000
ENDCHAR
STARTCHAR OneWavyLine
ENCODING 126
SWIDTH 666 0
DWIDTH 12 0
BBX 10 23 1 -5
BITMAP
0000
0000
0000
0000
0000
0000
0000
0000
0000
7040
fc40
8fc0
8380
0000
0000
0000
0000
0000
0000
0000
0000
0000
0000
ENDCHAR
STARTCHAR MediumShading
ENCODING 127
SWIDTH 666 0
DWIDTH 12 0
BBX 12 23 0 -5
BITMAP
aaa0
5550
aaa0
5550
aaa0
5550
aaa0
5550
aaa0
5550
aaa0
5550
aaa0
5550
aaa0
5550
aaa0
5550
aaa0
5550
aaa0
5550
aaa0
ENDCHAR
STARTCHAR InvExclamation
ENCODING 161
SWIDTH 666 0
DWIDTH 12 0
BBX 4 23 4 -5
BITMAP
0000
0000
0000
6000
F000
F000
6000
0000
0000
6000
6000
6000
6000
F000
F000
F000
F000
F000
6000
0000
0000
0000
0000
ENDCHAR
STARTCHAR CentSign
ENCODING 162
SWIDTH 666 0
DWIDTH 12 0
BBX 9 23 1 -5
BITMAP
0000
0000
0000
0000
0C00
0C00
0C00
1F80
7180
6080
C000
C000
C000
6080
7380
1E00
0C00
0C00
0C00
0000
0000
0000
0000
ENDCHAR
STARTCHAR SterlingSign
ENCODING 163
SWIDTH 666 0
DWIDTH 12 0
BBX 10 23 1 -5
BITMAP
0000
0000
0000
0000
1F00
3180
6080
6000
6000
FC00
6000
6000
FC00
6000
6000
6000
F8c0
CF80
0000
0000
0000
0000
0000
ENDCHAR
STARTCHAR CurrencySymbol
ENCODING 164
SWIDTH 666 0
DWIDTH 12 0
BBX 9 23 2 -5
BITMAP
0000
0000
0000
0000
0000
c180
ff80
e300
4100
4100
4100
6300
ff80
c180
0000
0000
0000
0000
0000
0000
0000
0000
0000
ENDCHAR
STARTCHAR Yensign
ENCODING 165
SWIDTH 666 0
DWIDTH 12 0
BBX 12 23 0 -5
BITMAP
0000
0000
0000
0000
F0F0
6060
30C0
30C0
1980
1980
0F00
7Fe0
0600
0600
7fe0
0600
0600
1F80
0000
0000
0000
0000
0000
ENDCHAR
STARTCHAR BrokenVertMark
ENCODING 166
SWIDTH 666 0
DWIDTH 12 0
BBX 2 23 5 -5
BITMAP
0000
0000
0000
C000
C000
C000
C000
C000
C000
C000
0000
0000
C000
C000
C000
C000
C000
C000
C000
0000
0000
0000
0000
ENDCHAR
STARTCHAR SectionMark
ENCODING 167
SWIDTH 666 0
DWIDTH 12 0
BBX 8 23 2 -5
BITMAP
0000
0000
0000
7c00
c600
c600
e000
7000
3800
5c00
ce00
c700
e300
7300
3a00
1c00
0e00
0700
6300
6300
3e00
0000
0000
ENDCHAR
STARTCHAR diaeresisAccnt
ENCODING 168
SWIDTH 666 0
DWIDTH 12 0
BBX 7 23 2 -5
BITMAP
0000
0000
0000
0000
4400
ee00
4400
0000
0000
0000
0000
0000
0000
0000
0000
0000
0000
0000
0000
0000
0000
0000
0000
ENDCHAR
STARTCHAR CopyrightSign
ENCODING 169
SWIDTH 666 0
DWIDTH 12 0
BBX 9 23 1 -5
BITMAP
0000
0000
0000
0000
0000
1c00
6300
4100
9e80
b280
b080
b080
b280
9c80
4100
6300
1c00
0000
0000
0000
0000
0000
0000
ENDCHAR
STARTCHAR FemaleOrdinal
ENCODING 170
SWIDTH 666 0
DWIDTH 12 0
BBX 9 23 2 -5
BITMAP
0000
0000
0000
3e00
6300
0300
1f00
6300
c300
C700
7980
0000
ff80
0000
0000
0000
0000
0000
0000
0000
0000
0000
0000
ENDCHAR
STARTCHAR DblOpenAnglQut
ENCODING 171
SWIDTH 666 0
DWIDTH 12 0
BBX 9 23 2 -5
BITMAP
0000
0000
0000
0000
0000
0000
0880
1980
3300
6600
cc00
cc00
6600
3300
1980
0880
0000
0000
0000
0000
0000
0000
0000
ENDCHAR
STARTCHAR NotSign
ENCODING 172
SWIDTH 666 0
DWIDTH 12 0
BBX 10 23 1 -5
BITMAP
0000
0000
0000
0000
0000
0000
0000
0000
0000
0000
FFC0
FFC0
00c0
00c0
00c0
00c0
0000
0000
0000
0000
0000
0000
0000
ENDCHAR
STARTCHAR SoftHyphen
ENCODING 173
SWIDTH 666 0
DWIDTH 12 0
BBX 10 23 1 -5
BITMAP
0000
0000
0000
0000
0000
0000
0000
0000
0000
0000
FFC0
FFC0
0000
0000
0000
0000
0000
0000
0000
0000
0000
0000
0000
ENDCHAR
STARTCHAR RegisTradeMark
ENCODING 174
SWIDTH 666 0
DWIDTH 12 0
BBX 11 23 1 -5
BITMAP
0000
0000
0000
0000
0000
1f00
60c0
4040
9e20
9b20
9b20
9e20
9b20
99a0
4040
61c0
1e00
0000
0000
0000
0000
0000
0000
ENDCHAR
STARTCHAR macronAccent
ENCODING 175
SWIDTH 666 0
DWIDTH 12 0
BBX 9 23 1 -5
BITMAP
0000
0000
0000
0000
FF80
FF80
0000
0000
0000
0000
0000
0000
0000
0000
0000
0000
0000
0000
0000
0000
0000
0000
0000
ENDCHAR
STARTCHAR DegreeSign
ENCODING 176
SWIDTH 666 0
DWIDTH 12 0
BBX 7 23 3 -5
BITMAP
0000
0000
0000
0000
3800
6C00
C600
C600
C600
6C00
3800
0000
0000
0000
0000
0000
0000
0000
0000
0000
0000
0000
0000
ENDCHAR
STARTCHAR PlusOverMinus
ENCODING 177
SWIDTH 666 0
DWIDTH 12 0
BBX 10 23 1 -5
BITMAP
0000
0000
0000
0000
0c00
0c00
0c00
ffc0
ffc0
0c00
0c00
0c00
0000
ffc0
ffc0
0000
0000
0000
0000
0000
0000
0000
0000
ENDCHAR
STARTCHAR SupNumberTwo
ENCODING 178
SWIDTH 666 0
DWIDTH 12 0
BBX 6 23 3 -5
BITMAP
0000
0000
0000
7800
cc00
8c00
0c00
1800
3000
6000
c400
fc00
0000
0000
0000
0000
0000
0000
0000
0000
0000
0000
0000
ENDCHAR
STARTCHAR SupNumberThree
ENCODING 179
SWIDTH 666 0
DWIDTH 12 0
BBX 6 23 3 -5
BITMAP
0000
0000
0000
7800
cc00
8c00
0c00
3800
0c00
8c00
cc00
7800
0000
0000
0000
0000
0000
0000
0000
0000
0000
0000
0000
ENDCHAR
STARTCHAR acuteAccent
ENCODING 180
SWIDTH 666 0
DWIDTH 12 0
BBX 5 23 4 -5
BITMAP
0000
0000
0000
0000
3800
7000
c000
0000
0000
0000
0000
0000
0000
0000
0000
0000
0000
0000
0000
0000
0000
0000
0000
ENDCHAR
STARTCHAR muGreek
ENCODING 181
SWIDTH 666 0
DWIDTH 12 0
BBX 11 23 1 -5
BITMAP
0000
0000
0000
0000
0000
0000
0000
0000
0000
1860
1860
1860
30C0
30c0
30c0
7180
7Fe0
6ee0
6000
C000
C000
C000
0000
ENDCHAR
STARTCHAR ParagraphSign
ENCODING 182
SWIDTH 666 0
DWIDTH 12 0
BBX 11 23 1 -5
BITMAP
0000
0000
0000
0000
3fe0
7CC0
FCC0
FCC0
FCC0
fCC0
7CC0
3CC0
0CC0
0CC0
0CC0
0CC0
0CC0
0CC0
0CC0
0000
0000
0000
0000
ENDCHAR
STARTCHAR middleDot
ENCODING 183
SWIDTH 666 0
DWIDTH 12 0
BBX 4 23 4 -5
BITMAP
0000
0000
0000
0000
0000
0000
0000
0000
0000
0000
6000
f000
6000
0000
0000
0000
0000
0000
0000
0000
0000
0000
0000
ENDCHAR
STARTCHAR cedilla
ENCODING 184
SWIDTH 666 0
DWIDTH 12 0
BBX 6 23 3 -5
BITMAP
0000
0000
0000
0000
0000
0000
0000
0000
0000
0000
0000
0000
0000
0000
0000
0000
0000
0000
1000
3800
0c00
cc00
7800
ENDCHAR
STARTCHAR SupNumberOne
ENCODING 185
SWIDTH 666 0
DWIDTH 12 0
BBX 5 23 3 -5
BITMAP
0000
0000
0000
1800
3800
5800
9800
1800
1800
1800
1800
1800
0000
0000
0000
0000
0000
0000
0000
0000
0000
0000
0000
ENDCHAR
STARTCHAR MaleOrdinal
ENCODING 186
SWIDTH 666 0
DWIDTH 12 0
BBX 8 23 2 -5
BITMAP
0000
0000
0000
3c00
6600
c300
C300
C300
c300
6600
3c00
0000
ff00
0000
0000
0000
0000
0000
0000
0000
0000
0000
0000
ENDCHAR
STARTCHAR DblClosAnglQut
ENCODING 187
SWIDTH 666 0
DWIDTH 12 0
BBX 9 23 2 -5
BITMAP
0000
0000
0000
0000
0000
0000
8800
cc00
6600
3300
1980
1980
3300
6600
cc00
8800
0000
0000
0000
0000
0000
0000
0000
ENDCHAR
STARTCHAR FracOneFourth
ENCODING 188
SWIDTH 666 0
DWIDTH 12 0
BBX 11 23 1 -5
BITMAP
0000
0000
1800
3800
5800
1800
1820
1860
18c0
1980
0300
0600
0c00
1900
3300
6200
c680
84C0
0cC0
0Fe0
00C0
00C0
0000
ENDCHAR
STARTCHAR FracOneHalf
ENCODING 189
SWIDTH 666 0
DWIDTH 12 0
BBX 11 23 1 -5
BITMAP
0000
0000
1800
3800
5800
1800
1820
1860
18c0
1980
0300
0600
0c00
1bc0
3660
6460
c060
80c0
0180
0300
0620
07e0
0000
ENDCHAR
STARTCHAR FracThreeFour
ENCODING 190
SWIDTH 666 0
DWIDTH 12 0
BBX 11 23 1 -5
BITMAP
0000
7800
cc00
8C00
0C00
3800
0c20
8c60
Ccc0
7980
0300
0600
0c00
1900
3300
6200
c680
84C0
0cC0
0Fe0
00C0
00C0
0000
ENDCHAR
STARTCHAR InvertQuestion
ENCODING 191
SWIDTH 666 0
DWIDTH 12 0
BBX 9 23 2 -5
BITMAP
0000
0000
0000
0000
0c00
1e00
1e00
0c00
0000
0000
0c00
0c00
1c00
3800
7000
e100
e380
e380
7300
3e00
0000
0000
0000
ENDCHAR
STARTCHAR Agrave
ENCODING 192
SWIDTH 666 0
DWIDTH 12 0
BBX 12 23 0 -5
BITMAP
3800
1c00
0600
0000
0600
0600
0f00
0b00
0b00
1980
1180
1180
30c0
3fc0
20c0
6060
6060
f0f0
0000
0000
0000
0000
0000
ENDCHAR
STARTCHAR Aacute
ENCODING 193
SWIDTH 666 0
DWIDTH 12 0
BBX 12 23 0 -5
BITMAP
01c0
0380
0600
0000
0600
0600
0f00
0b00
0b00
1980
1180
1180
30c0
3fc0
20c0
6060
6060
f0f0
0000
0000
0000
0000
0000
ENDCHAR
STARTCHAR Acircumflex
ENCODING 194
SWIDTH 666 0
DWIDTH 12 0
BBX 12 23 0 -5
BITMAP
0400
0e00
1b00
2080
0600
0600
0f00
0b00
0b00
1980
1180
1180
30c0
3fc0
20c0
6060
6060
f0f0
0000
0000
0000
0000
0000
ENDCHAR
STARTCHAR Atilde
ENCODING 195
SWIDTH 666 0
DWIDTH 12 0
BBX 12 23 0 -5
BITMAP
1c40
2f40
2380
0000
0600
0600
0f00
0b00
0b00
1980
1180
1180
30c0
3fc0
20c0
6060
6060
f0f0
0000
0000
0000
0000
0000
ENDCHAR
STARTCHAR Adiaeresis
ENCODING 196
SWIDTH 666 0
DWIDTH 12 0
BBX 12 23 0 -5
BITMAP
1100
3b80
1100
0000
0600
0600
0f00
0b00
0b00
1980
1180
1180
30c0
3fc0
20c0
6060
6060
f0f0
0000
0000
0000
0000
0000
ENDCHAR
STARTCHAR Abolle
ENCODING 197
SWIDTH 666 0
DWIDTH 12 0
BBX 12 23 0 -5
BITMAP
0e00
1100
1100
1100
0e00
0600
0f00
0b00
0b00
1980
1180
1180
30c0
3fc0
20c0
6060
6060
f0f0
0000
0000
0000
0000
0000
ENDCHAR
STARTCHAR AEdiphthong
ENCODING 198
SWIDTH 666 0
DWIDTH 12 0
BBX 12 23 0 -5
BITMAP
0000
0000
0000
0000
1FF0
0F30
0B10
1B00
1B20
1320
13E0
3320
3F20
2300
2310
6310
6330
F7F0
0000
0000
0000
0000
0000
ENDCHAR
STARTCHAR Ccedilla
ENCODING 199
SWIDTH 666 0
DWIDTH 12 0
BBX 10 23 1 -5
BITMAP
0000
0000
0000
0000
1F40
31C0
60C0
6040
C000
C000
C000
C000
C000
C000
6040
60C0
3b80
0e00
0400
0e00
0300
3300
1e00
ENDCHAR
STARTCHAR Egrave
ENCODING 200
SWIDTH 666 0
DWIDTH 12 0
BBX 10 23 1 -5
BITMAP
7000
3800
0c00
0000
FFC0
60C0
6040
6040
6200
6200
7E00
6200
6200
6000
6040
6040
60C0
FFC0
0000
0000
0000
0000
0000
ENDCHAR
STARTCHAR Eacute
ENCODING 201
SWIDTH 666 0
DWIDTH 12 0
BBX 10 23 1 -5
BITMAP
0380
0700
0c00
0000
FFC0
60C0
6040
6040
6200
6200
7E00
6200
6200
6000
6040
6040
60C0
FFC0
0000
0000
0000
0000
0000
ENDCHAR
STARTCHAR Ecircumflex
ENCODING 202
SWIDTH 666 0
DWIDTH 12 0
BBX 10 23 1 -5
BITMAP
0c00
1e00
3300
0000
FFC0
60C0
6040
6040
6200
6200
7E00
6200
6200
6000
6040
6040
60C0
FFC0
0000
0000
0000
0000
0000
ENDCHAR
STARTCHAR Ediaeresis
ENCODING 203
SWIDTH 666 0
DWIDTH 12 0
BBX 10 23 1 -5
BITMAP
2200
7700
2200
0000
ffc0
60c0
6040
6040
6200
6200
7e00
6200
6200
6000
6040
6040
60c0
ffc0
0000
0000
0000
0000
0000
ENDCHAR
STARTCHAR Igrave
ENCODING 204
SWIDTH 666 0
DWIDTH 12 0
BBX 8 23 2 -5
BITMAP
E000
7000
1800
0000
FF00
1800
1800
1800
1800
1800
1800
1800
1800
1800
1800
1800
1800
FF00
0000
0000
0000
0000
0000
ENDCHAR
STARTCHAR Iacute
ENCODING 205
SWIDTH 666 0
DWIDTH 12 0
BBX 8 23 2 -5
BITMAP
0700
0E00
1800
0000
FF00
1800
1800
1800
1800
1800
1800
1800
1800
1800
1800
1800
1800
FF00
0000
0000
0000
0000
0000
ENDCHAR
STARTCHAR Icircumflex
ENCODING 206
SWIDTH 666 0
DWIDTH 12 0
BBX 8 23 2 -5
BITMAP
1800
3c00
4200
0000
ff00
1800
1800
1800
1800
1800
1800
1800
1800
1800
1800
1800
1800
ff00
0000
0000
0000
0000
0000
ENDCHAR
STARTCHAR Idiaeresis
ENCODING 207
SWIDTH 666 0
DWIDTH 12 0
BBX 8 23 2 -5
BITMAP
4400
ee00
4400
0000
ff00
1800
1800
1800
1800
1800
1800
1800
1800
1800
1800
1800
1800
ff00
0000
0000
0000
0000
0000
ENDCHAR
STARTCHAR Eth
ENCODING 208
SWIDTH 666 0
DWIDTH 12 0
BBX 11 23 1 -5
BITMAP
0000
0000
0000
0000
FE00
6380
60C0
60C0
6060
6060
FC60
6060
6060
6060
60C0
60C0
6380
FE00
0000
0000
0000
0000
0000
ENDCHAR
STARTCHAR Ntilde
ENCODING 209
SWIDTH 666 0
DWIDTH 12 0
BBX 10 23 1 -5
BITMAP
0000
3880
5e80
4700
0000
e1c0
7080
7080
7880
5880
5c80
4c80
4e80
4680
4780
4380
4380
4180
e180
0000
0000
0000
0000
ENDCHAR
STARTCHAR Ograve
ENCODING 210
SWIDTH 666 0
DWIDTH 12 0
BBX 11 23 1 -5
BITMAP
3800
1c00
0600
0000
0e00
3b80
60c0
60c0
c060
c060
c060
c060
c060
c060
60c0
60c0
3b80
0e00
0000
0000
0000
0000
0000
ENDCHAR
STARTCHAR Oacute
ENCODING 211
SWIDTH 666 0
DWIDTH 12 0
BBX 11 23 1 -5
BITMAP
01c0
0380
0600
0000
0e00
3b80
60c0
60c0
c060
c060
c060
c060
c060
c060
60c0
60c0
3b80
0e00
0000
0000
0000
0000
0000
ENDCHAR
STARTCHAR Ocircumflex
ENCODING 212
SWIDTH 666 0
DWIDTH 12 0
BBX 11 23 1 -5
BITMAP
0c00
1e00
3300
4080
0e00
3b80
60C0
60C0
C060
C060
C060
C060
C060
C060
60C0
60C0
3b80
0e00
0000
0000
0000
0000
0000
ENDCHAR
STARTCHAR Otilde
ENCODING 213
SWIDTH 666 0
DWIDTH 12 0
BBX 11 23 1 -5
BITMAP
3880
5e80
4700
0000
0e00
3b80
60C0
60C0
C060
C060
C060
C060
C060
C060
60C0
60C0
3b80
0e00
0000
0000
0000
0000
0000
ENDCHAR
STARTCHAR Odiaeresis
ENCODING 214
SWIDTH 666 0
DWIDTH 12 0
BBX 11 23 1 -5
BITMAP
1100
3b80
1100
0000
0e00
3b80
60C0
60C0
C060
C060
C060
C060
C060
C060
60C0
60C0
3b80
0e00
0000
0000
0000
0000
0000
ENDCHAR
STARTCHAR MultiplySign
ENCODING 215
SWIDTH 666 0
DWIDTH 12 0
BBX 10 23 1 -5
BITMAP
0000
0000
0000
0000
0000
0000
c0c0
e1c0
7380
3f00
1e00
1e00
3f00
7380
e1c0
c0c0
0000
0000
0000
0000
0000
0000
0000
ENDCHAR
STARTCHAR Ooblique
ENCODING 216
SWIDTH 666 0
DWIDTH 12 0
BBX 11 23 1 -5
BITMAP
0000
0000
0000
0040
0ec0
3b80
61C0
6140
C360
C260
C660
C460
CC60
C860
58C0
70C0
3b80
6e00
4000
0000
0000
0000
0000
ENDCHAR
STARTCHAR Ugrave
ENCODING 217
SWIDTH 666 0
DWIDTH 12 0
BBX 11 23 1 -5
BITMAP
3800
1c00
0600
0000
F1E0
60c0
60c0
60c0
60c0
60c0
60c0
60c0
60c0
60c0
60c0
60c0
3180
1F00
0000
0000
0000
0000
0000
ENDCHAR
STARTCHAR Uacute
ENCODING 218
SWIDTH 666 0
DWIDTH 12 0
BBX 11 23 1 -5
BITMAP
01c0
0380
0600
0000
F1E0
60c0
60c0
60c0
60c0
60c0
60c0
60c0
60c0
60c0
60c0
60c0
3180
1F00
0000
0000
0000
0000
0000
ENDCHAR
STARTCHAR Ucircumflex
ENCODING 219
SWIDTH 666 0
DWIDTH 12 0
BBX 11 23 1 -5
BITMAP
0600
0F00
1980
0000
F1E0
60c0
60c0
60c0
60c0
60c0
60c0
60c0
60c0
60c0
60c0
60c0
3180
1F00
0000
0000
0000
0000
0000
ENDCHAR
STARTCHAR Udiaeresis
ENCODING 220
SWIDTH 666 0
DWIDTH 12 0
BBX 11 23 1 -5
BITMAP
1100
3b80
1100
0000
f1e0
60c0
60c0
60c0
60c0
60c0
60c0
60c0
60c0
60c0
60c0
60c0
3180
1f00
0000
0000
0000
0000
0000
ENDCHAR
STARTCHAR Yacute
ENCODING 221
SWIDTH 666 0
DWIDTH 12 0
BBX 12 23 0 -5
BITMAP
01C0
0380
0600
0000
F0F0
6060
30C0
30C0
1980
1980
0F00
0F00
0600
0600
0600
0600
0600
1F80
0000
0000
0000
0000
0000
ENDCHAR
STARTCHAR Thorn
ENCODING 222
SWIDTH 666 0
DWIDTH 12 0
BBX 10 23 1 -5
BITMAP
0000
0000
0000
0000
F800
6000
6000
7F00
6180
60C0
60C0
60C0
6180
7F00
6000
6000
6000
F800
0000
0000
0000
0000
0000
ENDCHAR
STARTCHAR EsZetLigature
ENCODING 223
SWIDTH 666 0
DWIDTH 12 0
BBX 11 23 1 -5
BITMAP
0000
0000
0000
0000
1F00
3180
60C0
60C0
60C0
6180
6780
60C0
6060
6060
6060
6860
6CC0
6780
6000
e000
0000
0000
0000
ENDCHAR
STARTCHAR agrave
ENCODING 224
SWIDTH 666 0
DWIDTH 12 0
BBX 10 23 1 -5
BITMAP
0000
0000
0000
0000
7000
3800
0c00
0000
0000
3F00
6380
0180
0180
3F80
6180
C180
E780
7cc0
0000
0000
0000
0000
0000
ENDCHAR
STARTCHAR aacute
ENCODING 225
SWIDTH 666 0
DWIDTH 12 0
BBX 10 23 1 -5
BITMAP
0000
0000
0000
0000
0380
0700
0c00
0000
0000
3F00
6380
0180
0180
3F80
6180
C180
E780
7cc0
0000
0000
0000
0000
0000
ENDCHAR
STARTCHAR acircumflex
ENCODING 226
SWIDTH 666 0
DWIDTH 12 0
BBX 10 23 1 -5
BITMAP
0000
0000
0000
0000
0c00
1e00
3300
0000
0000
3f00
6380
0180
0180
3f80
6180
c180
e780
7cc0
0000
0000
0000
0000
0000
ENDCHAR
STARTCHAR atilde
ENCODING 227
SWIDTH 666 0
DWIDTH 12 0
BBX 10 23 1 -5
BITMAP
0000
0000
0000
0000
3880
5e80
4700
0000
0000
3F00
6380
0180
0180
3F80
6180
C180
E780
7cc0
0000
0000
0000
0000
0000
ENDCHAR
STARTCHAR adiaeresis
ENCODING 228
SWIDTH 666 0
DWIDTH 12 0
BBX 10 23 1 -5
BITMAP
0000
0000
0000
0000
1100
3b80
1100
0000
0000
3f00
6380
0180
0180
3f80
6180
c180
e780
7cc0
0000
0000
0000
0000
0000
ENDCHAR
STARTCHAR abolle
ENCODING 229
SWIDTH 666 0
DWIDTH 12 0
BBX 11 23 1 -5
BITMAP
0000
0000
0e00
1100
1100
1100
0e00
0000
0000
3F00
6380
0180
0180
3F80
6180
C180
E780
7cc0
0000
0000
0000
0000
0000
ENDCHAR
STARTCHAR aedihthong
ENCODING 230
SWIDTH 666 0
DWIDTH 12 0
BBX 12 23 0 -5
BITMAP
0000
0000
0000
0000
0000
0000
0000
0000
0000
3dE0
6f30
0630
0630
7FF0
c600
C600
cF30
79E0
0000
0000
0000
0000
0000
ENDCHAR
STARTCHAR ccedilla
ENCODING 231
SWIDTH 666 0
DWIDTH 12 0
BBX 9 23 1 -5
BITMAP
0000
0000
0000
0000
0000
0000
0000
0000
0000
1F80
7180
6080
C000
C000
C000
6080
7380
1E00
0400
0e00
0300
3300
1e00
ENDCHAR
STARTCHAR egrave
ENCODING 232
SWIDTH 666 0
DWIDTH 12 0
BBX 10 23 1 -5
BITMAP
0000
0000
0000
0000
3800
1c00
0600
0000
0000
1E00
7380
6180
C0C0
FFC0
C000
6040
71C0
1F00
0000
0000
0000
0000
0000
ENDCHAR
STARTCHAR eacute
ENCODING 233
SWIDTH 666 0
DWIDTH 12 0
BBX 10 23 1 -5
BITMAP
0000
0000
0000
0000
01c0
0380
0600
0000
0000
1E00
7380
6180
C0C0
FFC0
C000
6040
71C0
1F00
0000
0000
0000
0000
0000
ENDCHAR
STARTCHAR ecircumflex
ENCODING 234
SWIDTH 666 0
DWIDTH 12 0
BBX 10 23 1 -5
BITMAP
0000
0000
0000
0000
0c00
1e00
3300
0000
0000
1E00
7380
6180
C0C0
FFC0
C000
6040
71C0
1F00
0000
0000
0000
0000
0000
ENDCHAR
STARTCHAR ediaeresis
ENCODING 235
SWIDTH 666 0
DWIDTH 12 0
BBX 10 23 1 -5
BITMAP
0000
0000
0000
0000
1100
3b80
1100
0000
0000
1E00
7380
6180
C0C0
FFC0
C000
6040
71C0
1F00
0000
0000
0000
0000
0000
ENDCHAR
STARTCHAR igrave
ENCODING 236
SWIDTH 666 0
DWIDTH 12 0
BBX 8 23 2 -5
BITMAP
0000
0000
0000
0000
e000
7000
1800
0000
0000
1800
F800
1800
1800
1800
1800
1800
1800
FF00
0000
0000
0000
0000
0000
ENDCHAR
STARTCHAR iacute
ENCODING 237
SWIDTH 666 0
DWIDTH 12 0
BBX 8 23 2 -5
BITMAP
0000
0000
0000
0000
0700
0E00
1800
0000
0000
1800
F800
1800
1800
1800
1800
1800
1800
FF00
0000
0000
0000
0000
0000
ENDCHAR
STARTCHAR icircumflex
ENCODING 238
SWIDTH 666 0
DWIDTH 12 0
BBX 8 23 2 -5
BITMAP
0000
0000
0000
0000
1800
3c00
6600
0000
0000
1800
F800
1800
1800
1800
1800
1800
1800
FF00
0000
0000
0000
0000
0000
ENDCHAR
STARTCHAR idiaeresis
ENCODING 239
SWIDTH 666 0
DWIDTH 12 0
BBX 8 23 2 -5
BITMAP
0000
0000
0000
0000
4400
ee00
4400
0000
0000
1800
f800
1800
1800
1800
1800
1800
1800
ff00
0000
0000
0000
0000
0000
ENDCHAR
STARTCHAR ethIcelandic
ENCODING 240
SWIDTH 666 0
DWIDTH 12 0
BBX 10 23 1 -5
BITMAP
0000
0000
0000
0000
7600
1C00
3C00
6600
0300
1F80
7180
61C0
C0C0
C0C0
C0C0
6180
7380
1E00
0000
0000
0000
0000
0000
ENDCHAR
STARTCHAR ntilde
ENCODING 241
SWIDTH 666 0
DWIDTH 12 0
BBX 10 23 1 -5
BITMAP
0000
0000
0000
0000
3880
5e80
4700
0000
0000
6F00
F380
6180
6180
6180
6180
6180
6180
F3C0
0000
0000
0000
0000
0000
ENDCHAR
STARTCHAR ograve
ENCODING 242
SWIDTH 666 0
DWIDTH 12 0
BBX 10 23 1 -5
BITMAP
0000
0000
0000
0000
3800
1c00
0600
0000
0000
1E00
7380
6180
C0C0
C0C0
C0C0
6180
7380
1E00
0000
0000
0000
0000
0000
ENDCHAR
STARTCHAR oacute
ENCODING 243
SWIDTH 666 0
DWIDTH 12 0
BBX 10 23 1 -5
BITMAP
0000
0000
0000
0000
01c0
0380
0600
0000
0000
1E00
7380
6180
C0C0
C0C0
C0C0
6180
7380
1E00
0000
0000
0000
0000
0000
ENDCHAR
STARTCHAR ocircumflex
ENCODING 244
SWIDTH 666 0
DWIDTH 12 0
BBX 10 23 1 -5
BITMAP
0000
0000
0000
0000
0c00
1e00
3300
0000
0000
1E00
7380
6180
C0C0
C0C0
C0C0
6180
7380
1E00
0000
0000
0000
0000
0000
ENDCHAR
STARTCHAR otilde
ENCODING 245
SWIDTH 666 0
DWIDTH 12 0
BBX 10 23 1 -5
BITMAP
0000
0000
0000
0000
3880
5e80
4700
0000
0000
1E00
7380
6180
C0C0
C0C0
C0C0
6180
7380
1E00
0000
0000
0000
0000
0000
ENDCHAR
STARTCHAR odiaeresis
ENCODING 246
SWIDTH 666 0
DWIDTH 12 0
BBX 10 23 1 -5
BITMAP
0000
0000
0000
0000
2200
7700
2200
0000
0000
1e00
7380
6180
c0c0
c0c0
c0c0
6180
7380
1e00
0000
0000
0000
0000
0000
ENDCHAR
STARTCHAR DivideSign
ENCODING 247
SWIDTH 666 0
DWIDTH 12 0
BBX 10 23 1 -5
BITMAP
0000
0000
0000
0000
0000
0000
0c00
0c00
0000
0000
FFC0
FFC0
0000
0000
0c00
0c00
0000
0000
0000
0000
0000
0000
0000
ENDCHAR
STARTCHAR ooblique
ENCODING 248
SWIDTH 666 0
DWIDTH 12 0
BBX 10 23 1 -5
BITMAP
0000
0000
0000
0000
0000
0000
0000
0080
0180
1F00
7380
6780
C4C0
CCC0
C8C0
7980
7380
3E00
6000
4000
0000
0000
0000
ENDCHAR
STARTCHAR ugrave
ENCODING 249
SWIDTH 666 0
DWIDTH 12 0
BBX 10 23 1 -5
BITMAP
0000
0000
0000
0000
7000
3800
0c00
0000
0000
6180
E380
6180
6180
6180
6180
6180
7380
3cc0
0000
0000
0000
0000
0000
ENDCHAR
STARTCHAR uacute
ENCODING 250
SWIDTH 666 0
DWIDTH 12 0
BBX 10 23 1 -5
BITMAP
0000
0000
0000
0000
0380
0700
0c00
0000
0000
6180
E380
6180
6180
6180
6180
6180
7380
3cc0
0000
0000
0000
0000
0000
ENDCHAR
STARTCHAR ucircumflex
ENCODING 251
SWIDTH 666 0
DWIDTH 12 0
BBX 10 23 1 -5
BITMAP
0000
0000
0000
0000
0c00
1e00
3300
0000
0000
6180
E380
6180
6180
6180
6180
6180
7380
3cc0
0000
0000
0000
0000
0000
ENDCHAR
STARTCHAR udiaeresis
ENCODING 252
SWIDTH 666 0
DWIDTH 12 0
BBX 10 23 1 -5
BITMAP
0000
0000
0000
0000
2200
7700
2200
0000
0000
6180
E380
6180
6180
6180
6180
6180
7380
3cc0
0000
0000
0000
0000
0000
ENDCHAR
STARTCHAR yacute
ENCODING 253
SWIDTH 666 0
DWIDTH 12 0
BBX 11 23 1 -5
BITMAP
0000
0000
0000
0000
01c0
0380
0600
0000
0000
F1E0
60C0
3080
3180
1900
1b00
0e00
0E00
0400
0C00
2800
7800
3000
0000
ENDCHAR
STARTCHAR thorn
ENCODING 254
SWIDTH 666 0
DWIDTH 12 0
BBX 11 23 1 -5
BITMAP
0000
0000
0000
0000
6000
E000
6000
6000
6000
6F00
71C0
60C0
6060
6060
6060
60C0
71C0
6F00
6000
6000
6000
F800
0000
ENDCHAR
STARTCHAR ydiaeresis
ENCODING 255
SWIDTH 666 0
DWIDTH 12 0
BBX 11 23 1 -5
BITMAP
0000
0000
0000
0000
1100
3b80
1100
0000
0000
F1E0
60C0
3080
3180
1900
1b00
0e00
0e00
0400
0c00
2800
7800
3000
0000
ENDCHAR
ENDFONT
